{
    "asset" : {
        "generator" : "Khronos glTF Blender I/O v3.4.50",
        "version" : "2.0"
    },
    "scene" : 0,
    "scenes" : [
        {
            "name" : "Scene",
            "nodes" : [
                0
            ]
        }
    ],
    "nodes" : [
        {
            "mesh" : 0,
            "name" : "Full Chainlink_0",
            "rotation" : [
                -0.70710688829422,
                0,
                0,
                0.7071066498756409
            ],
            "scale" : [
                0.024709999561309814,
                0.024710003286600113,
                1.0513001680374146
            ],
            "translation" : [
                1.0040500164031982,
                1.0849801301956177,
                0
            ]
        }
    ],
    "materials" : [
        {
            "doubleSided" : true,
            "name" : "Material.001",
            "pbrMetallicRoughness" : {
                "baseColorFactor" : [
                    0.800000011920929,
                    0.800000011920929,
                    0.800000011920929,
                    1
                ],
                "roughnessFactor" : 0.07145579159259796
            }
        }
    ],
    "meshes" : [
        {
            "name" : "Full Chainlink_0",
            "primitives" : [
                {
                    "attributes" : {
                        "POSITION" : 0,
                        "NORMAL" : 1
                    },
                    "indices" : 2,
                    "material" : 0
                }
            ]
        }
    ],
    "accessors" : [
        {
            "bufferView" : 0,
            "componentType" : 5126,
            "count" : 10192,
            "max" : [
                1.2844500541687012,
                1.2733900547027588,
                1.0449399948120117
            ],
            "min" : [
                -122.63072967529297,
                -1.2352499961853027,
                -1
            ],
            "type" : "VEC3"
        },
        {
            "bufferView" : 1,
            "componentType" : 5126,
            "count" : 10192,
            "type" : "VEC3"
        },
        {
            "bufferView" : 2,
            "componentType" : 5123,
            "count" : 10650,
            "type" : "SCALAR"
        }
    ],
    "bufferViews" : [
        {
            "buffer" : 0,
            "byteLength" : 122304,
            "byteOffset" : 0,
            "target" : 34962
        },
        {
            "buffer" : 0,
            "byteLength" : 122304,
            "byteOffset" : 122304,
            "target" : 34962
        },
        {
            "buffer" : 0,
            "byteLength" : 21300,
            "byteOffset" : 244608,
            "target" : 34963
        }
    ],
    "buffers" : [
        {
            "byteLength" : 265908,
            "uri" : "scene.bin"
        }
    ]
}
