{
  "accessors": [
    {
      "bufferView": 2,
      "componentType": 5126,
      "count": 6124,
      "max": [
        0.7433239817619324,
        3.6363487243652344,
        1.4888756275177002
      ],
      "min": [
        -0.7433459758758545,
        -3.2319440841674805,
        -0.006288434844464064
      ],
      "type": "VEC3"
    },
    {
      "bufferView": 2,
      "byteOffset": 73488,
      "componentType": 5126,
      "count": 6124,
      "max": [
        1.0,
        1.0,
        1.0
      ],
      "min": [
        -1.0,
        -1.0,
        -1.0
      ],
      "type": "VEC3"
    },
    {
      "bufferView": 1,
      "componentType": 5126,
      "count": 6124,
      "max": [
        1.9917949438095093,
        1.0
      ],
      "min": [
        -0.000577000027988106,
        -0.2677820026874542
      ],
      "type": "VEC2"
    },
    {
      "bufferView": 0,
      "componentType": 5125,
      "count": 15231,
      "type": "SCALAR"
    }
  ],
  "asset": {
    "extras": {
      "author": "Primus03 (https://sketchfab.com/Primus03)",
      "license": "CC-BY-4.0 (http://creativecommons.org/licenses/by/4.0/)",
      "source": "https://sketchfab.com/3d-models/transformers-universe-army-truck-35b0bf14ca4c4864aaf844de054b4f63",
      "title": "Transformers Universe: Army Truck"
    },
    "generator": "Sketchfab-12.72.0",
    "version": "2.0"
  },
  "bufferViews": [
    {
      "buffer": 0,
      "byteLength": 60924,
      "name": "floatBufferViews",
      "target": 34963
    },
    {
      "buffer": 0,
      "byteLength": 48992,
      "byteOffset": 60924,
      "byteStride": 8,
      "name": "floatBufferViews",
      "target": 34962
    },
    {
      "buffer": 0,
      "byteLength": 146976,
      "byteOffset": 109916,
      "byteStride": 12,
      "name": "floatBufferViews",
      "target": 34962
    }
  ],
  "buffers": [
    {
      "byteLength": 256892,
      "uri": "scene.bin"
    }
  ],
  "images": [
    {
      "uri": "textures/Army_Truck_1_baseColor.png"
    }
  ],
  "materials": [
    {
      "doubleSided": true,
      "name": "Army_Truck_1",
      "pbrMetallicRoughness": {
        "baseColorTexture": {
          "index": 0
        },
        "metallicFactor": 0.0,
        "roughnessFactor": 0.8211145618000169
      }
    }
  ],
  "meshes": [
    {
      "name": "VEHICLE_Army Truck_Army Truck 1_0",
      "primitives": [
        {
          "attributes": {
            "NORMAL": 1,
            "POSITION": 0,
            "TEXCOORD_0": 2
          },
          "indices": 3,
          "material": 0,
          "mode": 4
        }
      ]
    }
  ],
  "nodes": [
    {
      "children": [
        1
      ],
      "matrix": [
        1.0,
        0.0,
        0.0,
        0.0,
        0.0,
        2.220446049250313e-16,
        -1.0,
        0.0,
        0.0,
        1.0,
        2.220446049250313e-16,
        0.0,
        0.0,
        0.0,
        0.0,
        1.0
      ],
      "name": "Sketchfab_model"
    },
    {
      "children": [
        2
      ],
      "matrix": [
        0.009999999776482582,
        0.0,
        0.0,
        0.0,
        0.0,
        0.0,
        0.009999999776482582,
        0.0,
        0.0,
        -0.009999999776482582,
        0.0,
        0.0,
        0.0,
        0.0,
        0.0,
        1.0
      ],
      "name": "af387fa5f21942eeaf49db6f35059974.fbx"
    },
    {
      "children": [
        3
      ],
      "name": "RootNode"
    },
    {
      "children": [
        4
      ],
      "matrix": [
        100.0,
        0.0,
        0.0,
        0.0,
        0.0,
        -1.629206793918314e-05,
        -99.99999999999868,
        0.0,
        0.0,
        99.99999999999868,
        -1.629206793918314e-05,
        0.0,
        0.0,
        0.0,
        0.0,
        1.0
      ],
      "name": "VEHICLE_Army Truck"
    },
    {
      "mesh": 0,
      "name": "VEHICLE_Army Truck_Army Truck 1_0"
    }
  ],
  "samplers": [
    {
      "magFilter": 9729,
      "minFilter": 9987,
      "wrapS": 10497,
      "wrapT": 10497
    }
  ],
  "scene": 0,
  "scenes": [
    {
      "name": "Sketchfab_Scene",
      "nodes": [
        0
      ]
    }
  ],
  "textures": [
    {
      "sampler": 0,
      "source": 0
    }
  ]
}
