{
  "accessors": [
    {
      "bufferView": 2,
      "componentType": 5126,
      "count": 4754,
      "max": [
        2.97094988822937,
        2.0347790718078613,
        4.113681793212891
      ],
      "min": [
        -2.9709689617156982,
        -0.13105499744415283,
        -4.165661811828613
      ],
      "type": "VEC3"
    },
    {
      "bufferView": 2,
      "byteOffset": 57048,
      "componentType": 5126,
      "count": 4754,
      "max": [
        1.0,
        0.9999992847442627,
        0.9999964833259583
      ],
      "min": [
        -1.0,
        -1.0,
        -0.9999991655349731
      ],
      "type": "VEC3"
    },
    {
      "bufferView": 1,
      "componentType": 5126,
      "count": 4754,
      "max": [
        3.9827919006347656,
        0.9984189867973328
      ],
      "min": [
        0.004461999982595444,
        0.0017679999582469463
      ],
      "type": "VEC2"
    },
    {
      "bufferView": 0,
      "componentType": 5125,
      "count": 11529,
      "type": "SCALAR"
    }
  ],
  "asset": {
    "extras": {
      "author": "Primus03 (https://sketchfab.com/Primus03)",
      "license": "CC-BY-4.0 (http://creativecommons.org/licenses/by/4.0/)",
      "source": "https://sketchfab.com/3d-models/transformers-universe-helicopter-3db35712cc214281af9233c44afad088",
      "title": "Transformers Universe: Helicopter"
    },
    "generator": "Sketchfab-12.72.0",
    "version": "2.0"
  },
  "bufferViews": [
    {
      "buffer": 0,
      "byteLength": 46116,
      "name": "floatBufferViews",
      "target": 34963
    },
    {
      "buffer": 0,
      "byteLength": 38032,
      "byteOffset": 46116,
      "byteStride": 8,
      "name": "floatBufferViews",
      "target": 34962
    },
    {
      "buffer": 0,
      "byteLength": 114096,
      "byteOffset": 84148,
      "byteStride": 12,
      "name": "floatBufferViews",
      "target": 34962
    }
  ],
  "buffers": [
    {
      "byteLength": 198244,
      "uri": "scene.bin"
    }
  ],
  "images": [
    {
      "uri": "textures/Helicopter_1_baseColor.png"
    }
  ],
  "materials": [
    {
      "doubleSided": true,
      "name": "Helicopter_1",
      "pbrMetallicRoughness": {
        "baseColorTexture": {
          "index": 0
        },
        "metallicFactor": 0.0,
        "roughnessFactor": 0.8211145618000169
      }
    }
  ],
  "meshes": [
    {
      "name": "VEHICLE_Army Helicopter_Helicopter 1_0",
      "primitives": [
        {
          "attributes": {
            "NORMAL": 1,
            "POSITION": 0,
            "TEXCOORD_0": 2
          },
          "indices": 3,
          "material": 0,
          "mode": 4
        }
      ]
    }
  ],
  "nodes": [
    {
      "children": [
        1
      ],
      "matrix": [
        1.0,
        0.0,
        0.0,
        0.0,
        0.0,
        2.220446049250313e-16,
        -1.0,
        0.0,
        0.0,
        1.0,
        2.220446049250313e-16,
        0.0,
        0.0,
        0.0,
        0.0,
        1.0
      ],
      "name": "Sketchfab_model"
    },
    {
      "children": [
        2
      ],
      "matrix": [
        0.009999999776482582,
        0.0,
        0.0,
        0.0,
        0.0,
        0.0,
        0.009999999776482582,
        0.0,
        0.0,
        -0.009999999776482582,
        0.0,
        0.0,
        0.0,
        0.0,
        0.0,
        1.0
      ],
      "name": "fdbc74de61c742ba85a7fbbd49b5e690.fbx"
    },
    {
      "children": [
        3
      ],
      "name": "RootNode"
    },
    {
      "children": [
        4
      ],
      "matrix": [
        100.0,
        0.0,
        0.0,
        0.0,
        0.0,
        99.99999999999866,
        1.6292067073209114e-05,
        0.0,
        0.0,
        -1.6292067073209114e-05,
        99.99999999999866,
        0.0,
        0.0,
        0.0,
        0.0,
        1.0
      ],
      "name": "VEHICLE_Army Helicopter"
    },
    {
      "mesh": 0,
      "name": "VEHICLE_Army Helicopter_Helicopter 1_0"
    }
  ],
  "samplers": [
    {
      "magFilter": 9729,
      "minFilter": 9987,
      "wrapS": 10497,
      "wrapT": 10497
    }
  ],
  "scene": 0,
  "scenes": [
    {
      "name": "Sketchfab_Scene",
      "nodes": [
        0
      ]
    }
  ],
  "textures": [
    {
      "sampler": 0,
      "source": 0
    }
  ]
}
