{
  "accessors": [
    {
      "bufferView": 2,
      "componentType": 5126,
      "count": 598,
      "max": [
        137.374755859375,
        629.2093505859375,
        172.22406005859375
      ],
      "min": [
        -137.3746337890625,
        -2.0058135986328125,
        -172.2239990234375
      ],
      "type": "VEC3"
    },
    {
      "bufferView": 2,
      "byteOffset": 7176,
      "componentType": 5126,
      "count": 598,
      "max": [
        1.0,
        1.0,
        1.0
      ],
      "min": [
        -1.0,
        -1.0,
        -1.0
      ],
      "type": "VEC3"
    },
    {
      "bufferView": 1,
      "componentType": 5126,
      "count": 598,
      "max": [
        0.875,
        1.0
      ],
      "min": [
        0.125,
        0.0
      ],
      "type": "VEC2"
    },
    {
      "bufferView": 0,
      "componentType": 5125,
      "count": 924,
      "type": "SCALAR"
    },
    {
      "bufferView": 2,
      "byteOffset": 14352,
      "componentType": 5126,
      "count": 170,
      "max": [
        137.374755859375,
        582.69189453125,
        102.52536010742188
      ],
      "min": [
        -137.3746337890625,
        0.0,
        -172.2239990234375
      ],
      "type": "VEC3"
    },
    {
      "bufferView": 2,
      "byteOffset": 16392,
      "componentType": 5126,
      "count": 170,
      "max": [
        1.0,
        1.0,
        1.0
      ],
      "min": [
        -1.0,
        -1.0,
        -1.0
      ],
      "type": "VEC3"
    },
    {
      "bufferView": 1,
      "byteOffset": 4784,
      "componentType": 5126,
      "count": 170,
      "max": [
        0.65625,
        0.9790664911270142
      ],
      "min": [
        0.34375,
        0.020933538675308228
      ],
      "type": "VEC2"
    },
    {
      "bufferView": 0,
      "byteOffset": 3696,
      "componentType": 5125,
      "count": 312,
      "type": "SCALAR"
    },
    {
      "bufferView": 2,
      "byteOffset": 18432,
      "componentType": 5126,
      "count": 104,
      "max": [
        126.138427734375,
        620.999267578125,
        -31.5400390625
      ],
      "min": [
        -129.899658203125,
        476.69122314453125,
        -147.8992919921875
      ],
      "type": "VEC3"
    },
    {
      "bufferView": 2,
      "byteOffset": 19680,
      "componentType": 5126,
      "count": 104,
      "max": [
        1.0,
        1.0,
        1.0
      ],
      "min": [
        -1.0,
        -0.9999710321426392,
        -1.0
      ],
      "type": "VEC3"
    },
    {
      "bufferView": 1,
      "byteOffset": 6144,
      "componentType": 5126,
      "count": 104,
      "max": [
        0.875,
        1.0
      ],
      "min": [
        0.125,
        0.0
      ],
      "type": "VEC2"
    },
    {
      "bufferView": 0,
      "byteOffset": 4944,
      "componentType": 5125,
      "count": 192,
      "type": "SCALAR"
    },
    {
      "bufferView": 2,
      "byteOffset": 20928,
      "componentType": 5126,
      "count": 178,
      "max": [
        117.7366943359375,
        609.8006591796875,
        83.083740234375
      ],
      "min": [
        -120.6175537109375,
        460.68829345703125,
        -147.8992919921875
      ],
      "type": "VEC3"
    },
    {
      "bufferView": 2,
      "byteOffset": 23064,
      "componentType": 5126,
      "count": 178,
      "max": [
        1.0,
        1.0,
        1.0
      ],
      "min": [
        -1.0,
        -1.0,
        -1.0
      ],
      "type": "VEC3"
    },
    {
      "bufferView": 1,
      "byteOffset": 6976,
      "componentType": 5126,
      "count": 178,
      "max": [
        0.875,
        1.0
      ],
      "min": [
        0.125,
        0.0
      ],
      "type": "VEC2"
    },
    {
      "bufferView": 0,
      "byteOffset": 5712,
      "componentType": 5125,
      "count": 324,
      "type": "SCALAR"
    }
  ],
  "asset": {
    "extras": {
      "author": "BlackSpire (https://sketchfab.com/blackspire)",
      "license": "CC-BY-4.0 (http://creativecommons.org/licenses/by/4.0/)",
      "source": "https://sketchfab.com/3d-models/army-wood-tower-d78fa9daa7d4450d93f6d63f79e8463e",
      "title": "Army_Wood_Tower"
    },
    "generator": "Sketchfab-12.68.0",
    "version": "2.0"
  },
  "bufferViews": [
    {
      "buffer": 0,
      "byteLength": 7008,
      "name": "floatBufferViews",
      "target": 34963
    },
    {
      "buffer": 0,
      "byteLength": 8400,
      "byteOffset": 7008,
      "byteStride": 8,
      "name": "floatBufferViews",
      "target": 34962
    },
    {
      "buffer": 0,
      "byteLength": 25200,
      "byteOffset": 15408,
      "byteStride": 12,
      "name": "floatBufferViews",
      "target": 34962
    }
  ],
  "buffers": [
    {
      "byteLength": 40608,
      "uri": "scene.bin"
    }
  ],
  "materials": [
    {
      "doubleSided": true,
      "name": "Legno03_Mat",
      "pbrMetallicRoughness": {
        "baseColorFactor": [
          0.157,
          0.12124,
          0.090589,
          1.0
        ],
        "metallicFactor": 0.0
      }
    },
    {
      "doubleSided": true,
      "name": "Legno02_Mat",
      "pbrMetallicRoughness": {
        "baseColorFactor": [
          0.422,
          0.264755,
          0.129976,
          1.0
        ],
        "metallicFactor": 0.0
      }
    },
    {
      "doubleSided": true,
      "name": "Legno01_Mat",
      "pbrMetallicRoughness": {
        "baseColorFactor": [
          0.238,
          0.157776,
          0.09758,
          1.0
        ],
        "metallicFactor": 0.0
      }
    },
    {
      "doubleSided": true,
      "name": "Legno04_Mat",
      "pbrMetallicRoughness": {
        "baseColorFactor": [
          0.365854,
          0.247948,
          0.159477,
          1.0
        ],
        "metallicFactor": 0.0
      }
    }
  ],
  "meshes": [
    {
      "name": "pCylinder575_Legno03_Mat_0",
      "primitives": [
        {
          "attributes": {
            "NORMAL": 1,
            "POSITION": 0,
            "TEXCOORD_0": 2
          },
          "indices": 3,
          "material": 0,
          "mode": 4
        }
      ]
    },
    {
      "name": "pCylinder575_Legno02_Mat_0",
      "primitives": [
        {
          "attributes": {
            "NORMAL": 5,
            "POSITION": 4,
            "TEXCOORD_0": 6
          },
          "indices": 7,
          "material": 1,
          "mode": 4
        }
      ]
    },
    {
      "name": "pCylinder575_Legno01_Mat_0",
      "primitives": [
        {
          "attributes": {
            "NORMAL": 9,
            "POSITION": 8,
            "TEXCOORD_0": 10
          },
          "indices": 11,
          "material": 2,
          "mode": 4
        }
      ]
    },
    {
      "name": "pCylinder575_Legno04_Mat_0",
      "primitives": [
        {
          "attributes": {
            "NORMAL": 13,
            "POSITION": 12,
            "TEXCOORD_0": 14
          },
          "indices": 15,
          "material": 3,
          "mode": 4
        }
      ]
    }
  ],
  "nodes": [
    {
      "children": [
        1
      ],
      "matrix": [
        1.0,
        0.0,
        0.0,
        0.0,
        0.0,
        2.220446049250313e-16,
        -1.0,
        0.0,
        0.0,
        1.0,
        2.220446049250313e-16,
        0.0,
        0.0,
        0.0,
        0.0,
        1.0
      ],
      "name": "Sketchfab_model"
    },
    {
      "children": [
        2
      ],
      "matrix": [
        1.0,
        0.0,
        0.0,
        0.0,
        0.0,
        0.0,
        1.0,
        0.0,
        0.0,
        -1.0,
        0.0,
        0.0,
        0.0,
        0.0,
        0.0,
        1.0
      ],
      "name": "17c32153943944e3b1da4dae35cc5a0e.fbx"
    },
    {
      "children": [
        3
      ],
      "name": "RootNode"
    },
    {
      "children": [
        4,
        5,
        6,
        7
      ],
      "matrix": [
        0.009999999776482582,
        0.0,
        0.0,
        0.0,
        0.0,
        0.009999999776482582,
        0.0,
        0.0,
        0.0,
        0.0,
        0.009999999776482582,
        0.0,
        0.0,
        0.0,
        0.0,
        1.0
      ],
      "name": "pCylinder575"
    },
    {
      "mesh": 0,
      "name": "pCylinder575_Legno03_Mat_0"
    },
    {
      "mesh": 1,
      "name": "pCylinder575_Legno02_Mat_0"
    },
    {
      "mesh": 2,
      "name": "pCylinder575_Legno01_Mat_0"
    },
    {
      "mesh": 3,
      "name": "pCylinder575_Legno04_Mat_0"
    }
  ],
  "scene": 0,
  "scenes": [
    {
      "name": "Sketchfab_Scene",
      "nodes": [
        0
      ]
    }
  ]
}
