{
  "accessors": [
    {
      "bufferView": 2,
      "componentType": 5126,
      "count": 337,
      "max": [
        1.6557090282440186,
        0.9819269180297852,
        0.1369292289018631
      ],
      "min": [
        -1.5442910194396973,
        -0.00988858938217163,
        -2.3297314643859863
      ],
      "type": "VEC3"
    },
    {
      "bufferView": 2,
      "byteOffset": 4044,
      "componentType": 5126,
      "count": 337,
      "max": [
        1.0,
        0.999997615814209,
        1.0
      ],
      "min": [
        -1.0,
        -0.9999848008155823,
        -1.0
      ],
      "type": "VEC3"
    },
    {
      "bufferView": 1,
      "componentType": 5126,
      "count": 337,
      "max": [
        0.9983140230178833,
        0.9877883195877075
      ],
      "min": [
        -0.0016860663890838623,
        -0.00402715802192688
      ],
      "type": "VEC2"
    },
    {
      "bufferView": 0,
      "componentType": 5125,
      "count": 585,
      "type": "SCALAR"
    }
  ],
  "asset": {
    "extras": {
      "author": "Trueno (https://sketchfab.com/astate)",
      "license": "CC-BY-4.0 (http://creativecommons.org/licenses/by/4.0/)",
      "source": "https://sketchfab.com/3d-models/background-building-3-41c5b4040239468faff314aa5b0fd10a",
      "title": "Background building 3"
    },
    "generator": "Sketchfab-14.81.0",
    "version": "2.0"
  },
  "bufferViews": [
    {
      "buffer": 0,
      "byteLength": 2340,
      "name": "floatBufferViews",
      "target": 34963
    },
    {
      "buffer": 0,
      "byteLength": 2696,
      "byteOffset": 2340,
      "byteStride": 8,
      "name": "floatBufferViews",
      "target": 34962
    },
    {
      "buffer": 0,
      "byteLength": 8088,
      "byteOffset": 5036,
      "byteStride": 12,
      "name": "floatBufferViews",
      "target": 34962
    }
  ],
  "buffers": [
    {
      "byteLength": 13124,
      "uri": "scene.bin"
    }
  ],
  "images": [
    {
      "uri": "textures/TexturesCom_BuildingsIndustrial0001_S_baseColor.jpeg"
    }
  ],
  "materials": [
    {
      "doubleSided": true,
      "name": "TexturesCom_BuildingsIndustrial0001_S",
      "pbrMetallicRoughness": {
        "baseColorTexture": {
          "index": 0
        },
        "metallicFactor": 0.0,
        "roughnessFactor": 0.8211145618000169
      }
    }
  ],
  "meshes": [
    {
      "name": "TexturesCom_BuildingsIndustrial0001_S_TexturesCom_BuildingsIndustrial0001_S_0",
      "primitives": [
        {
          "attributes": {
            "NORMAL": 1,
            "POSITION": 0,
            "TEXCOORD_0": 2
          },
          "indices": 3,
          "material": 0,
          "mode": 4
        }
      ]
    }
  ],
  "nodes": [
    {
      "children": [
        1
      ],
      "matrix": [
        1.0,
        0.0,
        0.0,
        0.0,
        0.0,
        2.220446049250313e-16,
        -1.0,
        0.0,
        0.0,
        1.0,
        2.220446049250313e-16,
        0.0,
        0.0,
        0.0,
        0.0,
        1.0
      ],
      "name": "Sketchfab_model"
    },
    {
      "children": [
        2
      ],
      "matrix": [
        0.009999999776482582,
        0.0,
        0.0,
        0.0,
        0.0,
        0.0,
        0.009999999776482582,
        0.0,
        0.0,
        -0.009999999776482582,
        0.0,
        0.0,
        0.0,
        0.0,
        0.0,
        1.0
      ],
      "name": "65e58f5fe70e40c7a5c64785be9d525e.fbx"
    },
    {
      "children": [
        3
      ],
      "name": "RootNode"
    },
    {
      "children": [
        4
      ],
      "matrix": [
        100.0,
        2.220446049250314e-14,
        2.2204457845525177e-14,
        0.0,
        -2.220445881611311e-14,
        99.99999999999972,
        -7.5497901264043296e-06,
        0.0,
        -2.220445952191528e-14,
        7.5497901264043296e-06,
        99.99999999999972,
        0.0,
        -5.57089376449585,
        0.0,
        -0.9888544678688049,
        1.0
      ],
      "name": "TexturesCom_BuildingsIndustrial0001_S"
    },
    {
      "mesh": 0,
      "name": "TexturesCom_BuildingsIndustrial0001_S_TexturesCom_BuildingsIndustrial0001_S_0"
    }
  ],
  "samplers": [
    {
      "magFilter": 9729,
      "minFilter": 9987,
      "wrapS": 10497,
      "wrapT": 10497
    }
  ],
  "scene": 0,
  "scenes": [
    {
      "name": "Sketchfab_Scene",
      "nodes": [
        0
      ]
    }
  ],
  "textures": [
    {
      "sampler": 0,
      "source": 0
    }
  ]
}
